<svg width="229" height="39" viewBox="0 0 229 39" fill="none" xmlns="http://www.w3.org/2000/svg">
<path d="M37.9404 1.55078C37.9404 1.82747 37.859 2.08789 37.6963 2.33203C37.5498 2.5599 37.3382 2.71452 37.0615 2.7959C36.4919 2.94238 35.9303 3.08073 35.377 3.21094C34.8236 3.32487 34.262 3.42253 33.6924 3.50391C34.1156 6.07552 34.4085 8.57389 34.5713 10.999C34.7503 13.4242 34.8398 15.8249 34.8398 18.2012C34.8398 21.4238 34.7096 24.5326 34.4492 27.5273C34.2051 30.5221 33.904 33.46 33.5459 36.3408C33.4482 36.6989 33.2773 36.9674 33.0332 37.1465C32.8053 37.3418 32.5449 37.4395 32.252 37.4395C31.6986 37.4395 31.3161 37.179 31.1045 36.6582C30.6488 35.5514 30.0221 34.1924 29.2246 32.5811C28.4434 30.9535 27.5563 29.2119 26.5635 27.3564C25.5869 25.4847 24.5452 23.5479 23.4385 21.5459C22.348 19.5439 21.2738 17.6071 20.2158 15.7354C19.1742 13.8636 18.1895 12.1139 17.2617 10.4863C16.334 8.84245 15.5446 7.45085 14.8936 6.31152L14.1611 34.6074C14.7796 34.6562 15.4062 34.7051 16.041 34.7539C16.6921 34.8027 17.3431 34.8516 17.9941 34.9004C18.3197 34.9492 18.5882 35.0957 18.7998 35.3398C19.0277 35.584 19.1416 35.8688 19.1416 36.1943C19.1416 36.5687 19.0033 36.8698 18.7266 37.0977C18.4499 37.3255 18.1569 37.4395 17.8477 37.4395H17.75C16.4479 37.3092 15.1458 37.2116 13.8438 37.1465C12.5579 37.0814 11.264 37.0488 9.96191 37.0488C8.67611 37.0488 7.39844 37.0814 6.12891 37.1465C4.87565 37.2116 3.61426 37.3092 2.34473 37.4395H2.24707C1.889 37.4395 1.57975 37.3092 1.31934 37.0488C1.0752 36.8047 0.953125 36.5199 0.953125 36.1943C0.953125 35.8688 1.05892 35.584 1.27051 35.3398C1.49837 35.0957 1.77507 34.9492 2.10059 34.9004C2.7028 34.8516 3.30501 34.8027 3.90723 34.7539C4.52572 34.7051 5.13607 34.6562 5.73828 34.6074L6.2998 3.79688C4.90007 3.69922 3.48405 3.55273 2.05176 3.35742C1.72624 3.30859 1.45768 3.16211 1.24609 2.91797C1.05078 2.65755 0.953125 2.36458 0.953125 2.03906C0.953125 1.64844 1.09961 1.34733 1.39258 1.13574C1.68555 0.907878 1.97038 0.793945 2.24707 0.793945H2.39355C4.13509 1.02181 5.83594 1.20085 7.49609 1.33105C9.17253 1.44499 10.8408 1.50195 12.501 1.50195H14.3076C14.3239 1.50195 14.3727 1.51009 14.4541 1.52637C14.5355 1.52637 14.625 1.54264 14.7227 1.5752C14.8366 1.60775 14.9505 1.66471 15.0645 1.74609C15.1947 1.82747 15.3086 1.94141 15.4062 2.08789C15.4714 2.20182 15.6829 2.56803 16.041 3.18652C16.3991 3.80501 16.863 4.61068 17.4326 5.60352C18.0023 6.59635 18.6533 7.74382 19.3857 9.0459C20.1344 10.348 20.9238 11.7396 21.7539 13.2207C22.6003 14.7018 23.4629 16.2399 24.3418 17.835C25.2207 19.43 26.0833 21.0251 26.9297 22.6201C27.7923 24.1989 28.6143 25.7451 29.3955 27.2588C30.193 28.7562 30.9092 30.1559 31.5439 31.458C31.7555 29.3258 31.9346 27.1611 32.0811 24.9639C32.2275 22.7666 32.3008 20.5124 32.3008 18.2012C32.3008 15.89 32.2113 13.5299 32.0322 11.1211C31.8532 8.71224 31.5602 6.23828 31.1533 3.69922C30.9417 3.73177 30.7383 3.74805 30.543 3.74805C30.3477 3.74805 30.1361 3.74805 29.9082 3.74805C28.9479 3.74805 27.9469 3.69922 26.9053 3.60156C26.5798 3.56901 26.3031 3.43066 26.0752 3.18652C25.8636 2.92611 25.7578 2.63314 25.7578 2.30762C25.7578 1.94954 25.888 1.64844 26.1484 1.4043C26.4251 1.16016 26.7262 1.03809 27.0518 1.03809H27.1982C27.654 1.10319 28.1016 1.15202 28.541 1.18457C28.9967 1.20085 29.4525 1.20898 29.9082 1.20898C31.0312 1.20898 32.1299 1.13574 33.2041 0.989258C34.2783 0.842773 35.3281 0.631185 36.3535 0.354492C36.4186 0.32194 36.5326 0.305664 36.6953 0.305664C37.0534 0.305664 37.3464 0.435872 37.5742 0.696289C37.8184 0.94043 37.9404 1.22526 37.9404 1.55078ZM73.1699 27.5029C73.1699 29.277 72.763 30.8639 71.9492 32.2637C71.1354 33.6471 70.0856 34.819 68.7998 35.7793C67.514 36.7233 66.0817 37.4476 64.5029 37.9521C62.9404 38.4567 61.3942 38.709 59.8643 38.709C56.9997 38.709 54.3548 38.1882 51.9297 37.1465C49.5046 36.1048 47.348 34.5749 45.46 32.5566V33.1426C45.46 33.6634 45.4681 34.1761 45.4844 34.6807C45.5007 35.1852 45.5251 35.6898 45.5576 36.1943V36.292C45.5576 36.6175 45.4437 36.9023 45.2158 37.1465C45.0042 37.3906 44.7194 37.529 44.3613 37.5615C43.987 37.5615 43.6777 37.4476 43.4336 37.2197C43.1895 36.9919 43.0511 36.6989 43.0186 36.3408C42.986 35.82 42.9616 35.2992 42.9453 34.7783C42.929 34.2412 42.9209 33.7122 42.9209 33.1914C42.9209 31.5312 43.0023 30.0013 43.165 28.6016C43.3278 27.1855 43.5475 25.7858 43.8242 24.4023C43.9056 24.0931 44.0521 23.8408 44.2637 23.6455C44.4915 23.4502 44.7601 23.3525 45.0693 23.3525C45.4437 23.3525 45.7529 23.499 45.9971 23.792C46.2412 24.0687 46.3633 24.3535 46.3633 24.6465C46.3633 24.679 46.3633 24.7197 46.3633 24.7686C46.3633 24.8011 46.347 24.8418 46.3145 24.8906C46.2331 25.265 46.1598 25.6149 46.0947 25.9404C46.0459 26.2497 45.9889 26.5589 45.9238 26.8682C45.875 27.1611 45.8262 27.4704 45.7773 27.7959C45.7448 28.1051 45.7041 28.4551 45.6553 28.8457C47.4782 31.1895 49.5615 32.9961 51.9053 34.2656C54.249 35.5189 56.8857 36.1455 59.8154 36.1455C60.6455 36.1455 61.5326 36.0723 62.4766 35.9258C63.4368 35.7793 64.3158 35.5189 65.1133 35.1445C65.9271 34.7539 66.5944 34.2412 67.1152 33.6064C67.6523 32.9554 67.9209 32.1335 67.9209 31.1406C67.9209 30.4408 67.7337 29.806 67.3594 29.2363C66.985 28.6504 66.4967 28.1296 65.8945 27.6738C65.2923 27.2181 64.6087 26.8193 63.8438 26.4775C63.0951 26.1195 62.3382 25.8102 61.5732 25.5498C60.8083 25.2894 60.0758 25.0778 59.376 24.915C58.6924 24.736 58.1064 24.5977 57.6182 24.5C56.4626 24.2559 55.3151 23.9873 54.1758 23.6943C53.0365 23.3851 51.9541 23.0189 50.9287 22.5957C49.9033 22.1725 48.9512 21.6761 48.0723 21.1064C47.1934 20.5368 46.4284 19.8695 45.7773 19.1045C45.1426 18.3232 44.638 17.4199 44.2637 16.3945C43.9056 15.3691 43.7266 14.1891 43.7266 12.8545C43.7266 11.5524 43.8975 10.3561 44.2393 9.26562C44.5973 8.15885 45.0856 7.16602 45.7041 6.28711C46.3226 5.4082 47.0469 4.64323 47.877 3.99219C48.7233 3.32487 49.6429 2.77148 50.6357 2.33203C51.6286 1.8763 52.6702 1.54264 53.7607 1.33105C54.8675 1.10319 55.9824 0.989258 57.1055 0.989258C57.7891 0.989258 58.5133 1.04622 59.2783 1.16016C60.0596 1.25781 60.8327 1.4043 61.5977 1.59961C62.3626 1.77865 63.1113 1.99837 63.8438 2.25879C64.5924 2.50293 65.2842 2.77962 65.9189 3.08887C66.5537 3.38184 67.1152 3.69922 67.6035 4.04102C68.0918 4.36654 68.4824 4.7002 68.7754 5.04199C69.0033 4.4235 69.2474 3.81315 69.5078 3.21094C69.7845 2.59245 70.0693 1.97396 70.3623 1.35547C70.4925 1.1276 70.6553 0.956706 70.8506 0.842773C71.0622 0.712565 71.2819 0.647461 71.5098 0.647461C71.8841 0.647461 72.1934 0.785807 72.4375 1.0625C72.6816 1.32292 72.8037 1.61589 72.8037 1.94141C72.8037 2.12044 72.7549 2.30762 72.6572 2.50293C71.8109 4.26074 71.111 6.02669 70.5576 7.80078C70.0205 9.55859 69.638 11.3408 69.4102 13.1475C69.3776 13.473 69.2393 13.7415 68.9951 13.9531C68.7673 14.1484 68.4906 14.2461 68.165 14.2461C67.7907 14.2461 67.4814 14.1077 67.2373 13.8311C66.9932 13.5544 66.8711 13.2777 66.8711 13.001V12.8545C67.0664 11.1292 67.4163 9.42839 67.9209 7.75195C67.8232 7.45898 67.571 7.14974 67.1641 6.82422C66.7572 6.48242 66.2526 6.1569 65.6504 5.84766C65.0645 5.53841 64.3971 5.24544 63.6484 4.96875C62.8997 4.67578 62.1348 4.4235 61.3535 4.21191C60.5723 4.00033 59.791 3.82943 59.0098 3.69922C58.2285 3.56901 57.5124 3.50391 56.8613 3.50391C55.8685 3.50391 54.9163 3.6097 54.0049 3.82129C53.0934 4.03288 52.2796 4.37467 51.5635 4.84668C50.8636 5.31868 50.2939 5.92904 49.8545 6.67773C49.415 7.41016 49.1872 8.2972 49.1709 9.33887C49.236 10.2503 49.4801 11.0397 49.9033 11.707C50.3428 12.3581 50.8799 12.9277 51.5146 13.416C52.1657 13.9043 52.8981 14.3193 53.7119 14.6611C54.5257 14.9867 55.3477 15.2715 56.1777 15.5156C57.0241 15.7435 57.846 15.9469 58.6436 16.126C59.4411 16.2887 60.1654 16.4434 60.8164 16.5898C62.4603 16.9805 64.0309 17.4199 65.5283 17.9082C67.0257 18.3965 68.3359 19.0394 69.459 19.8369C70.5983 20.6344 71.5016 21.6517 72.1689 22.8887C72.8363 24.1094 73.1699 25.6475 73.1699 27.5029ZM99.708 24.1582C99.1058 22.319 98.471 20.6263 97.8037 19.0801C97.1364 17.5176 96.4772 16.1178 95.8262 14.8809C95.1914 13.6276 94.5811 12.5371 93.9951 11.6094C93.4255 10.6654 92.9372 9.89225 92.5303 9.29004C91.0166 11.8617 89.6576 14.3763 88.4531 16.834C87.265 19.2754 86.207 21.7168 85.2793 24.1582C86.5814 24.3047 87.8346 24.4268 89.0391 24.5244C90.2435 24.6058 91.4398 24.6465 92.6279 24.6465C93.7998 24.6465 94.9635 24.6058 96.1191 24.5244C97.291 24.4268 98.4873 24.3047 99.708 24.1582ZM116.358 37.5615C116.326 37.5615 116.293 37.5534 116.261 37.5371C116.228 37.5371 116.196 37.5208 116.163 37.4883C114.682 37.2604 113.217 37.0977 111.769 37C110.336 36.9023 108.904 36.8535 107.472 36.8535C106.056 36.8535 104.656 36.9023 103.272 37C101.905 37.0977 100.538 37.2604 99.1709 37.4883C99.1383 37.5208 99.1058 37.5371 99.0732 37.5371C99.0407 37.5534 99.0081 37.5615 98.9756 37.5615C98.6175 37.5615 98.3083 37.4232 98.0479 37.1465C97.8037 36.8698 97.6816 36.5687 97.6816 36.2432C97.6816 35.9502 97.7793 35.6816 97.9746 35.4375C98.1862 35.1934 98.4548 35.0469 98.7803 34.998C99.4313 34.8678 100.09 34.7702 100.758 34.7051C101.425 34.6237 102.109 34.5423 102.809 34.4609C102.727 34.1517 102.63 33.7692 102.516 33.3135C102.402 32.8415 102.247 32.2881 102.052 31.6533C101.873 31.0186 101.653 30.2861 101.393 29.4561C101.148 28.6097 100.855 27.6576 100.514 26.5996C99.1302 26.7949 97.7956 26.9495 96.5098 27.0635C95.224 27.1611 93.93 27.21 92.6279 27.21C91.3096 27.21 89.9749 27.1611 88.624 27.0635C87.2731 26.9495 85.8571 26.7949 84.376 26.5996C83.5133 29.1712 82.8135 31.7184 82.2764 34.2412C83.2855 34.2738 84.2946 34.3551 85.3037 34.4854C86.3291 34.5993 87.3708 34.7702 88.4287 34.998C88.7217 35.0469 88.9577 35.1934 89.1367 35.4375C89.332 35.6816 89.4297 35.9502 89.4297 36.2432C89.4297 36.6175 89.2832 36.9268 88.9902 37.1709C88.7135 37.4313 88.4206 37.5615 88.1113 37.5615C88.0625 37.5615 88.0218 37.5452 87.9893 37.5127C87.9567 37.4964 87.916 37.4883 87.8672 37.4883C86.793 37.2604 85.735 37.0895 84.6934 36.9756C83.668 36.8617 82.6426 36.8047 81.6172 36.8047C80.6081 36.8047 79.6152 36.8617 78.6387 36.9756C77.6621 37.0895 76.6693 37.2604 75.6602 37.4883C75.6113 37.4883 75.5706 37.4964 75.5381 37.5127C75.5055 37.5452 75.4648 37.5615 75.416 37.5615C75.0417 37.5615 74.7324 37.4313 74.4883 37.1709C74.2441 36.9105 74.1221 36.6012 74.1221 36.2432C74.1221 35.9502 74.2116 35.6898 74.3906 35.4619C74.5697 35.234 74.8138 35.0794 75.123 34.998C75.8555 34.819 76.5879 34.6807 77.3203 34.583C78.069 34.4854 78.834 34.404 79.6152 34.3389C80.1686 31.6533 80.8929 28.9678 81.7881 26.2822C82.6833 23.5967 83.7493 20.8867 84.9863 18.1523C86.2396 15.4017 87.6719 12.6104 89.2832 9.77832C90.8945 6.94629 92.7093 4.03288 94.7275 1.03809C94.874 0.842773 95.0368 0.704427 95.2158 0.623047C95.4111 0.541667 95.5983 0.500977 95.7773 0.500977C95.9727 0.500977 96.1598 0.541667 96.3389 0.623047C96.5179 0.688151 96.6644 0.793945 96.7783 0.94043C100.196 5.30241 103.126 10.2503 105.567 15.7842C108.025 21.3018 110.043 27.5111 111.622 34.4121C113.282 34.5586 114.934 34.7539 116.578 34.998C116.904 35.0469 117.164 35.1934 117.359 35.4375C117.571 35.6816 117.677 35.9502 117.677 36.2432C117.677 36.6012 117.53 36.9105 117.237 37.1709C116.961 37.4313 116.668 37.5615 116.358 37.5615ZM168.263 21.6924C168.132 21.6924 168.051 21.6761 168.019 21.6436C167.172 21.4971 166.367 21.3994 165.602 21.3506C164.853 21.2855 164.112 21.2367 163.38 21.2041C163.982 21.904 164.487 22.7585 164.894 23.7676C165.317 24.7604 165.528 25.9404 165.528 27.3076C165.528 28.6097 165.325 29.7897 164.918 30.8477C164.527 31.8893 163.99 32.8252 163.307 33.6553C162.623 34.4691 161.817 35.1771 160.89 35.7793C159.978 36.3652 159.002 36.8535 157.96 37.2441C156.935 37.6348 155.868 37.9196 154.762 38.0986C153.655 38.2939 152.573 38.3916 151.515 38.3916C148.748 38.3102 146.274 37.8464 144.093 37C141.912 36.1374 140.056 34.9329 138.526 33.3867C136.996 31.8405 135.825 29.9688 135.011 27.7715C134.213 25.5742 133.814 23.084 133.814 20.3008C133.814 17.8268 134.075 15.6296 134.596 13.709C135.117 11.7721 135.825 10.0794 136.72 8.63086C137.631 7.16602 138.697 5.93717 139.918 4.94434C141.139 3.93522 142.433 3.12142 143.8 2.50293C145.183 1.86816 146.616 1.41243 148.097 1.13574C149.578 0.842773 151.035 0.696289 152.467 0.696289C153.899 0.696289 155.185 0.850911 156.324 1.16016C157.464 1.45312 158.481 1.82747 159.376 2.2832C160.271 2.73893 161.036 3.25163 161.671 3.82129C162.322 4.37467 162.859 4.90365 163.282 5.4082L164.625 1.55078C164.723 1.29036 164.885 1.08691 165.113 0.94043C165.341 0.777669 165.577 0.696289 165.821 0.696289C166.228 0.696289 166.546 0.842773 166.773 1.13574C167.001 1.41243 167.115 1.69727 167.115 1.99023C167.115 2.03906 167.107 2.10417 167.091 2.18555C167.075 2.25065 167.05 2.32389 167.018 2.40527L163.136 13.7578C163.054 14.002 162.9 14.2054 162.672 14.3682C162.444 14.5146 162.192 14.5879 161.915 14.5879C161.541 14.5879 161.231 14.4577 160.987 14.1973C160.743 13.9206 160.621 13.6195 160.621 13.2939C160.621 13.2451 160.629 13.1882 160.646 13.123C160.662 13.0579 160.686 12.9847 160.719 12.9033L162.281 8.33789C161.874 7.70312 161.378 7.09277 160.792 6.50684C160.222 5.90462 159.588 5.37565 158.888 4.91992C158.204 4.46419 157.48 4.09798 156.715 3.82129C155.95 3.5446 155.185 3.40625 154.42 3.40625C152.467 3.40625 150.742 3.82943 149.244 4.67578C147.747 5.50586 146.485 6.65332 145.46 8.11816C144.451 9.56673 143.686 11.2594 143.165 13.1963C142.644 15.1331 142.384 17.2002 142.384 19.3975C142.384 20.374 142.441 21.4564 142.555 22.6445C142.685 23.8327 142.888 25.0371 143.165 26.2578C143.458 27.4785 143.832 28.6585 144.288 29.7979C144.76 30.9372 145.338 31.9544 146.021 32.8496C146.705 33.7448 147.503 34.4609 148.414 34.998C149.326 35.5352 150.375 35.8037 151.563 35.8037C153.549 35.8037 155.258 35.5596 156.69 35.0713C158.123 34.583 159.295 33.9401 160.206 33.1426C161.134 32.3451 161.817 31.4336 162.257 30.4082C162.696 29.3828 162.916 28.333 162.916 27.2588C162.916 26.3148 162.786 25.501 162.525 24.8174C162.265 24.1175 161.956 23.5397 161.598 23.084C161.24 22.612 160.873 22.2458 160.499 21.9854C160.125 21.7249 159.832 21.5459 159.62 21.4482C158.757 21.5622 157.984 21.7087 157.301 21.8877C156.633 22.0667 156.064 22.2376 155.592 22.4004C155.136 22.5632 154.778 22.7096 154.518 22.8398C154.273 22.9538 154.143 23.0107 154.127 23.0107C153.948 23.141 153.744 23.2061 153.517 23.2061C153.142 23.2061 152.833 23.0758 152.589 22.8154C152.345 22.5387 152.223 22.2376 152.223 21.9121C152.223 21.4401 152.442 21.0658 152.882 20.7891C152.931 20.7728 153.191 20.6507 153.663 20.4229C154.135 20.195 154.794 19.9508 155.641 19.6904C156.503 19.4137 157.545 19.1696 158.766 18.958C160.003 18.7464 161.402 18.6406 162.965 18.6406C164.641 18.6406 166.48 18.8115 168.482 19.1533C168.775 19.2021 169.02 19.3486 169.215 19.5928C169.426 19.8206 169.532 20.0892 169.532 20.3984C169.532 20.8216 169.386 21.1471 169.093 21.375C168.8 21.5866 168.523 21.6924 168.263 21.6924ZM197.291 18.6895C197.291 19.015 197.185 19.2998 196.974 19.5439C196.778 19.7881 196.518 19.9264 196.192 19.959C194.402 20.2031 192.628 20.3903 190.87 20.5205C189.129 20.6344 187.363 20.6914 185.572 20.6914C182.105 20.6914 178.59 20.4473 175.025 19.959C174.7 19.9264 174.431 19.7881 174.22 19.5439C174.024 19.2998 173.927 19.015 173.927 18.6895C173.927 18.3477 174.049 18.0465 174.293 17.7861C174.553 17.5257 174.871 17.3955 175.245 17.3955C175.278 17.3955 175.302 17.4036 175.318 17.4199C175.335 17.4362 175.359 17.4443 175.392 17.4443C177.491 17.721 179.355 17.9326 180.982 18.0791C182.626 18.2256 184.197 18.2988 185.694 18.2988C186.476 18.2988 187.257 18.2826 188.038 18.25C188.836 18.2174 189.641 18.1686 190.455 18.1035C191.285 18.0221 192.14 17.9326 193.019 17.835C193.897 17.721 194.833 17.5908 195.826 17.4443C195.859 17.4443 195.891 17.4362 195.924 17.4199C195.956 17.4036 195.989 17.3955 196.021 17.3955C196.38 17.3955 196.681 17.5257 196.925 17.7861C197.169 18.0465 197.291 18.3477 197.291 18.6895ZM228.517 24.5488C228.517 26.681 228.175 28.5771 227.491 30.2373C226.808 31.8975 225.839 33.2972 224.586 34.4365C223.349 35.5758 221.852 36.4385 220.094 37.0244C218.336 37.6104 216.391 37.9033 214.259 37.9033C212.729 37.9033 211.264 37.6673 209.864 37.1953C208.465 36.7233 207.228 36.0479 206.153 35.1689C205.079 34.2738 204.216 33.1995 203.565 31.9463C202.931 30.6768 202.613 29.2445 202.613 27.6494C202.613 27.4215 202.621 27.1855 202.638 26.9414C202.654 26.6973 202.678 26.4531 202.711 26.209C202.743 25.8835 202.874 25.623 203.102 25.4277C203.346 25.2161 203.631 25.1104 203.956 25.1104C204.33 25.1104 204.64 25.2487 204.884 25.5254C205.128 25.8021 205.25 26.0788 205.25 26.3555V26.5508C205.217 26.6484 205.193 26.7949 205.177 26.9902C205.16 27.1693 205.152 27.3564 205.152 27.5518C205.152 28.3493 205.323 29.1956 205.665 30.0908C206.007 30.9697 206.487 31.7835 207.105 32.5322C207.74 33.2646 208.489 33.875 209.352 34.3633C210.214 34.8516 211.166 35.0957 212.208 35.0957C213.526 35.0957 214.666 34.819 215.626 34.2656C216.603 33.696 217.408 32.9391 218.043 31.9951C218.678 31.0348 219.15 29.9199 219.459 28.6504C219.785 27.3646 219.947 25.9974 219.947 24.5488C219.947 23.1003 219.768 21.7982 219.41 20.6426C219.052 19.487 218.523 18.5104 217.823 17.7129C217.123 16.8991 216.261 16.2806 215.235 15.8574C214.21 15.418 213.038 15.1982 211.72 15.1982C211.199 15.1982 210.637 15.2715 210.035 15.418C209.433 15.5482 208.855 15.7272 208.302 15.9551C207.748 16.1829 207.252 16.4434 206.812 16.7363C206.389 17.013 206.104 17.2979 205.958 17.5908C205.828 17.721 205.681 17.8268 205.519 17.9082C205.356 17.9733 205.185 18.0059 205.006 18.0059C204.648 18.0059 204.347 17.8757 204.103 17.6152C203.875 17.3385 203.761 17.0374 203.761 16.7119C203.761 16.6305 203.761 16.5573 203.761 16.4922C203.761 16.4108 203.777 16.3294 203.81 16.248C203.826 16.2318 203.98 15.8493 204.273 15.1006C204.566 14.3519 204.924 13.3509 205.348 12.0977C205.787 10.8281 206.251 9.36328 206.739 7.70312C207.244 6.04297 207.7 4.30957 208.106 2.50293C208.188 2.19368 208.342 1.94954 208.57 1.77051C208.814 1.59147 209.075 1.50195 209.352 1.50195C209.449 1.50195 209.514 1.51823 209.547 1.55078C210.475 1.68099 211.476 1.77051 212.55 1.81934C213.64 1.86816 214.723 1.89258 215.797 1.89258C216.904 1.89258 217.97 1.8763 218.995 1.84375C220.037 1.8112 220.956 1.77051 221.754 1.72168C222.551 1.67285 223.194 1.63216 223.683 1.59961C224.171 1.55078 224.431 1.51823 224.464 1.50195H224.562C224.92 1.50195 225.221 1.6403 225.465 1.91699C225.725 2.17741 225.855 2.47038 225.855 2.7959C225.855 3.12142 225.742 3.40625 225.514 3.65039C225.302 3.89453 225.034 4.04102 224.708 4.08984C224.627 4.08984 224.326 4.11426 223.805 4.16309C223.3 4.19564 222.641 4.24447 221.827 4.30957C221.03 4.3584 220.11 4.40723 219.068 4.45605C218.043 4.48861 216.977 4.50488 215.87 4.50488C214.942 4.50488 214.007 4.48047 213.062 4.43164C212.118 4.38281 211.215 4.30957 210.353 4.21191C209.897 6.03483 209.425 7.70312 208.937 9.2168C208.448 10.7142 207.993 12.0895 207.569 13.3428C208.562 12.8219 209.75 12.3581 211.134 11.9512C212.534 11.5443 214.145 11.3408 215.968 11.3408C217.905 11.3408 219.646 11.6745 221.192 12.3418C222.739 12.9928 224.057 13.9043 225.147 15.0762C226.238 16.248 227.068 17.6478 227.638 19.2754C228.224 20.8867 228.517 22.6445 228.517 24.5488Z" fill="#209966"/>
</svg>
